<svg height="22" viewBox="0 0 22 22" width="22" xmlns="http://www.w3.org/2000/svg" xmlns:xlink="http://www.w3.org/1999/xlink"><title/><defs><path d="M15.477 13.356C16.437 11.98 17 10.306 17 8.5 17 3.806 13.194 0 8.5 0S0 3.806 0 8.5 3.806 17 8.5 17c1.805 0 3.48-.563 4.855-1.522l6.304 6.303c.116.118.302.12.422 0l1.7-1.698c.116-.116.11-.31 0-.423l-6.305-6.304zM8.5 15c3.59 0 6.5-2.91 6.5-6.5S12.09 2 8.5 2 2 4.91 2 8.5 4.91 15 8.5 15z" id="a"/></defs><g fill="none" fill-rule="evenodd"><use fill="#000" xlink:href="#a"/><use xlink:href="#a"/></g></svg>